<?xml version="1.0" encoding="UTF-8" standalone="no"?>
<svg
   id="Layer_1"
   version="1.1"
   viewBox="0 0 155.8 82"
   sodipodi:docname="n8n.svg"
   width="155.8"
   height="82"
   inkscape:export-filename="n8n.svg"
   inkscape:export-xdpi="96"
   inkscape:export-ydpi="96"
   inkscape:version="1.4 (86a8ad7, 2024-10-11)"
   xmlns:inkscape="http://www.inkscape.org/namespaces/inkscape"
   xmlns:sodipodi="http://sodipodi.sourceforge.net/DTD/sodipodi-0.dtd"
   xmlns="http://www.w3.org/2000/svg"
   xmlns:svg="http://www.w3.org/2000/svg">
  <sodipodi:namedview
     id="namedview1"
     pagecolor="#505050"
     bordercolor="#eeeeee"
     borderopacity="1"
     inkscape:showpageshadow="0"
     inkscape:pageopacity="0"
     inkscape:pagecheckerboard="0"
     inkscape:deskcolor="#505050"
     inkscape:zoom="3.3625"
     inkscape:cx="77.472119"
     inkscape:cy="50.70632"
     inkscape:window-width="1920"
     inkscape:window-height="1009"
     inkscape:window-x="-8"
     inkscape:window-y="-8"
     inkscape:window-maximized="1"
     inkscape:current-layer="Layer_1" />
  <!-- Generator: Adobe Illustrator 29.5.1, SVG Export Plug-In . SVG Version: 2.1.0 Build 141)  -->
  <defs
     id="defs1">
    <style
       id="style1">
      .st0 {
        fill: #ea4b71;
        fill-rule: evenodd;
      }
    </style>
  </defs>
  <path
     class="st0"
     d="m 139.63272,32.854758 c -7.66611,0 -14.10017,-5.270451 -15.8798,-12.320534 h -18.82304 c -4.03839,0 -7.460765,2.874791 -8.076792,6.844741 l -0.684474,4.038397 C 95.552588,35.250417 93.567613,38.604341 90.829716,41 c 2.737897,2.395659 4.722872,5.749583 5.338898,9.582638 l 0.684474,4.038397 c 0.684475,3.96995 4.106842,6.844741 8.076792,6.844741 h 2.39566 c 1.84808,-7.050083 8.28214,-12.320534 15.8798,-12.320534 7.59767,0 16.42738,7.392321 16.42738,16.427379 0,9.035058 -7.32387,16.427379 -16.42738,16.427379 -9.1035,0 -14.10016,-5.270451 -15.8798,-12.320534 h -2.39566 c -8.008344,0 -14.853085,-5.81803 -16.222034,-13.689483 l -0.684474,-4.038397 c -0.684474,-3.96995 -4.106844,-6.844741 -8.076794,-6.844741 h -6.502505 c -1.84808,7.050083 -8.282136,12.320534 -15.879799,12.320534 -7.597663,0 -14.100167,-5.270451 -15.8798,-12.320534 H 32.444073 C 30.595993,52.156928 24.161937,57.427379 16.564274,57.427379 8.966611,57.427379 0,50.103506 0,41.068447 0,32.033389 7.3923205,24.641068 16.427379,24.641068 c 9.035058,0 14.100167,5.270451 15.8798,12.320535 h 9.2404 c 1.84808,-7.050084 8.282137,-12.320535 15.8798,-12.320535 7.597663,0 14.100167,5.270451 15.8798,12.320535 h 6.502504 c 4.038397,0 7.460768,-2.874792 8.076794,-6.844742 l 0.684475,-4.038397 c 1.3005,-7.9399 8.145242,-13.689482 16.222038,-13.689482 h 18.82304 C 125.53255,5.2704508 131.96661,0 139.63272,0 c 7.66611,0 16.42738,7.3923205 16.42738,16.427379 0,9.035058 -7.32387,16.427379 -16.42738,16.427379 z m 0,-8.21369 c 4.51753,0 8.21369,-3.69616 8.21369,-8.213689 0,-4.517529 -3.69616,-8.2136895 -8.21369,-8.2136895 -4.51753,0 -8.21369,3.6961605 -8.21369,8.2136895 0,4.517529 3.69616,8.213689 8.21369,8.213689 z M 16.427379,49.282137 c 4.517529,0 8.213689,-3.69616 8.213689,-8.21369 0,-4.517529 -3.69616,-8.213689 -8.213689,-8.213689 -4.517529,0 -8.2136895,3.69616 -8.2136895,8.213689 0,4.51753 3.6961605,8.21369 8.2136895,8.21369 z m 49.282137,-8.21369 c 0,4.51753 -3.69616,8.21369 -8.21369,8.21369 -4.517529,0 -8.213689,-3.69616 -8.213689,-8.21369 0,-4.517529 3.69616,-8.213689 8.213689,-8.213689 4.51753,0 8.21369,3.69616 8.21369,8.213689 z m 65.709514,24.641069 c 0,4.517529 -3.69616,8.213689 -8.21369,8.213689 -4.51753,0 -8.21369,-3.69616 -8.21369,-8.213689 0,-4.517529 3.69616,-8.21369 8.21369,-8.21369 4.51753,0 8.21369,3.696161 8.21369,8.21369 z"
     id="path1"
     style="fill:#ffffff;stroke-width:0.684474" />
</svg>
