<?xml version="1.0" encoding="UTF-8" standalone="no"?>
<!-- Generator: Adobe Illustrator 18.1.1, SVG Export Plug-In . SVG Version: 6.00 Build 0)  -->

<svg
   version="1.1"
   id="Layer_1"
   x="0px"
   y="0px"
   viewBox="0 0 82 82"
   enable-background="new 0 0 34 34"
   xml:space="preserve"
   sodipodi:docname="pbi.svg"
   width="82"
   height="82"
   inkscape:export-filename="pbi.svg"
   inkscape:export-xdpi="96"
   inkscape:export-ydpi="96"
   inkscape:version="1.4 (86a8ad7, 2024-10-11)"
   xmlns:inkscape="http://www.inkscape.org/namespaces/inkscape"
   xmlns:sodipodi="http://sodipodi.sourceforge.net/DTD/sodipodi-0.dtd"
   xmlns:xlink="http://www.w3.org/1999/xlink"
   xmlns="http://www.w3.org/2000/svg"
   xmlns:svg="http://www.w3.org/2000/svg"><defs
   id="defs5" /><sodipodi:namedview
   id="namedview5"
   pagecolor="#505050"
   bordercolor="#eeeeee"
   borderopacity="1"
   inkscape:showpageshadow="0"
   inkscape:pageopacity="0"
   inkscape:pagecheckerboard="0"
   inkscape:deskcolor="#505050"
   inkscape:zoom="2.9669118"
   inkscape:cx="50.052045"
   inkscape:cy="21.739777"
   inkscape:window-width="1920"
   inkscape:window-height="1009"
   inkscape:window-x="-8"
   inkscape:window-y="-8"
   inkscape:window-maximized="1"
   inkscape:current-layer="Layer_1" />
<g
   id="g5"
   style="fill:#ffffff"
   transform="matrix(2.4289489,0,0,2.4289489,-0.29213127,-0.34137118)">
	<defs
   id="defs1">
		<rect
   id="SVGID_1_"
   x="0.89999998"
   y="0"
   width="32.200001"
   height="33.900002" />
	</defs>
	<clipPath
   id="SVGID_2_">
		<use
   xlink:href="#SVGID_1_"
   overflow="visible"
   id="use1" />
	</clipPath>
	<path
   clip-path="url(#SVGID_2_)"
   fill="#231F20"
   d="m 11.1,27.3 c 0,1.1 -0.9,2.1 -2.1,2.1 -1.2,0 -2.1,-0.9 -2.1,-2.1 v -9 c 0,-1.1 0.9,-2.1 2.1,-2.1 1.2,0 2.1,0.9 2.1,2.1 z"
   id="path1"
   style="fill:#ffffff" />
	<path
   clip-path="url(#SVGID_2_)"
   fill="#231F20"
   d="m 17.1,29.7 c 0,1.1 -0.9,2.1 -2.1,2.1 -1.2,0 -2,-0.9 -2,-2.1 V 16 c 0,-1.1 0.9,-2.1 2.1,-2.1 1.2,0 2.1,0.9 2.1,2.1 v 13.7 z"
   id="path2"
   style="fill:#ffffff" />
	<path
   clip-path="url(#SVGID_2_)"
   fill="#231F20"
   d="m 5,25.3 c 0,1.1 -0.9,2.1 -2.1,2.1 -1.2,0 -2.1,-0.9 -2.1,-2.1 v -4.9 c 0,-1.1 0.9,-2.1 2.1,-2.1 1.2,0 2.1,1 2.1,2.1 z"
   id="path3"
   style="fill:#ffffff" />
	<path
   clip-path="url(#SVGID_2_)"
   fill="#231F20"
   d="M 23.1,31.9 C 23.1,33 22.2,34 21,34 19.9,34 19,33 19,31.9 V 13.7 c 0,-1.1 0.9,-2.1 2.1,-2.1 1.1,0 2.1,0.9 2.1,2.1 v 18.2 z"
   id="path4"
   style="fill:#ffffff" />
	<path
   clip-path="url(#SVGID_2_)"
   fill="#231F20"
   d="M 29.7,31 C 29.3,31 29,30.9 28.6,30.8 L 26.1,30 c -0.4,-0.1 -0.7,-0.6 -0.5,-1 0.1,-0.4 0.6,-0.7 1,-0.5 l 2.6,0.8 c 0.5,0.2 1.1,0.1 1.6,-0.3 0.5,-0.3 0.7,-0.9 0.7,-1.4 V 10.9 C 31.5,10.1 31,9.4 30.3,9.2 L 5.8,1.8 C 5.3,1.6 4.7,1.7 4.2,2 3.8,2.4 3.5,2.9 3.5,3.5 V 15 c 0,0.5 -0.4,0.8 -0.8,0.8 C 2.2,15.8 1.9,15.4 1.9,15 V 3.5 C 1.9,2.4 2.4,1.4 3.3,0.8 4.2,0.1 5.3,0 6.3,0.3 l 24.4,7.4 c 1.4,0.4 2.4,1.8 2.4,3.3 v 16.7 c 0,1.1 -0.5,2.1 -1.4,2.8 -0.6,0.2 -1.3,0.5 -2,0.5"
   id="path5"
   style="fill:#ffffff" />
</g>
</svg>
