<?xml version="1.0" encoding="UTF-8" standalone="no"?>
<!-- Generator: Adobe Illustrator 17.1.0, SVG Export Plug-In . SVG Version: 6.00 Build 0)  -->

<svg
   version="1.1"
   id="Layer_1"
   x="0px"
   y="0px"
   viewBox="0.6 1067.9 67.869848 82.000001"
   enable-background="new 0.6 1067.9 90.3 109.1"
   xml:space="preserve"
   width="67.86985"
   height="82"
   xmlns="http://www.w3.org/2000/svg"
   xmlns:svg="http://www.w3.org/2000/svg"><defs
   id="defs1" />
<g
   id="g1"
   transform="matrix(0.7517763,0,0,0.7517763,0.09886195,265.22844)"
   style="fill:#ffffff">
	<path
   fill="#ee4c2c"
   d="m 77.6,1099.6 -8.1,8.1 c 13.3,13.3 13.3,34.7 0,47.8 -13.3,13.3 -34.7,13.3 -47.8,0 -13.3,-13.3 -13.3,-34.7 0,-47.8 v 0 l 21.1,-21.1 3,-3 v 0 -15.9 L 14,1099.5 c -17.7,17.7 -17.7,46.3 0,64 17.7,17.7 46.3,17.7 63.7,0 17.6,-17.7 17.6,-46.1 -0.1,-63.9 z"
   id="path1"
   style="fill:#ffffff" />
	<circle
   fill="#ee4c2c"
   cx="61.700001"
   cy="1091.8"
   r="5.9000001"
   id="circle1"
   style="fill:#ffffff" />
</g>
</svg>
